<svg version="1.1" id="Layer_1" xmlns="http://www.w3.org/2000/svg" xmlns:xlink="http://www.w3.org/1999/xlink" x="0px" y="0px"
	 width="100%" viewBox="0 0 360 269" enable-background="new 0 0 360 269" xml:space="preserve">
<path fill="#000000" opacity="1.000000" stroke="none" 
	d="
M361.000000,92.000000 
	C361.000000,151.666672 361.000000,210.833328 361.000000,270.000000 
	C241.000000,270.000000 121.000000,270.000000 1.000000,270.000000 
	C1.000000,180.333328 1.000000,90.666664 1.000000,1.000000 
	C121.000000,1.000000 241.000000,1.000000 361.000000,1.000000 
	C361.000000,31.166666 361.000000,61.333332 361.000000,92.000000 
M106.296227,31.993095 
	C105.532623,32.689789 104.769020,33.386486 103.849121,34.528217 
	C103.651474,34.799149 103.386070,34.953785 102.426476,34.907871 
	C101.695496,34.585361 100.964508,34.262852 100.004120,33.839127 
	C100.004120,35.185867 100.004120,36.133938 99.739922,37.663506 
	C98.320976,38.935238 96.902039,40.206974 95.265694,40.803490 
	C94.962799,40.129311 94.659912,39.455132 94.357025,38.780952 
	C93.903763,39.519917 93.450508,40.258884 92.553864,41.208023 
	C92.276909,41.407436 92.092285,41.671429 91.413254,42.408974 
	C89.148308,44.093033 87.050262,45.860352 87.721642,49.712879 
	C86.201057,51.157158 84.680481,52.601437 82.543121,53.788082 
	C78.139519,53.029346 80.628792,55.546719 80.847168,57.501949 
	C80.676094,57.796471 80.421478,57.964134 79.313179,57.992886 
	C75.721794,58.824081 74.585571,61.298908 74.676468,64.690018 
	C74.676468,64.690018 74.692413,64.838921 74.038231,64.393860 
	C73.366318,66.276230 72.694412,68.158600 71.999992,69.999146 
	C71.999992,69.999146 72.041618,70.022064 71.265640,70.008049 
	C70.665482,70.230988 69.712128,70.287628 69.517296,70.701416 
	C65.610222,78.999466 61.485878,87.216270 58.070976,95.716866 
	C56.118866,100.576187 55.350361,105.910988 53.917061,111.851791 
	C53.279388,117.210075 51.871788,122.614990 52.192730,127.915222 
	C52.624817,135.051086 49.931526,142.343994 53.773720,149.457260 
	C55.129086,151.966537 54.066753,155.781708 54.123940,159.642075 
	C54.749474,160.094177 55.375011,160.546280 56.791687,161.152039 
	C57.059582,161.172043 57.327473,161.192062 57.755409,162.167984 
	C58.007893,163.434265 58.260376,164.700546 57.666016,165.607254 
	C56.992168,166.174850 55.657955,166.900787 55.750015,167.284714 
	C56.424175,170.096252 57.495995,172.809769 58.234268,175.609085 
	C61.043652,186.261459 65.381477,196.186890 72.038864,205.020233 
	C73.618874,207.116669 75.515327,208.990570 76.956139,211.171646 
	C78.518684,213.537033 79.272209,216.563858 81.160988,218.562973 
	C86.881348,224.617462 92.924683,230.372772 98.964394,236.116119 
	C100.881905,237.939575 102.959145,240.035187 105.353485,240.828201 
	C110.853386,242.649872 114.393814,247.420746 120.522049,248.878586 
	C127.122017,250.448639 132.895844,255.491486 139.185623,259.108643 
	C140.304749,257.694824 141.204605,256.558014 142.881241,255.565872 
	C146.239975,256.469727 149.598694,257.373596 152.947800,259.042389 
	C153.115372,260.253082 153.282944,261.463806 153.450516,262.674500 
	C153.834961,262.637634 154.219406,262.600769 154.603851,262.563873 
	C154.736633,261.380371 154.869431,260.196838 155.825470,258.975128 
	C159.552139,259.636688 163.278824,260.298248 167.014206,261.702057 
	C168.409271,265.026367 170.411148,264.946411 175.812347,261.210999 
	C176.862335,261.267456 177.912308,261.323883 179.099518,262.012207 
	C180.412598,261.801117 181.725677,261.590027 183.846771,261.209076 
	C185.221451,261.234924 186.596115,261.260773 188.122849,261.949890 
	C190.087784,262.954468 192.052704,263.959045 194.589539,264.714966 
	C194.397858,263.820038 194.206192,262.925140 193.444672,261.977142 
	C192.973099,261.699219 192.501511,261.421295 192.846176,260.931702 
	C197.563309,260.292328 202.280441,259.652954 207.071625,259.687103 
	C207.509521,260.577423 207.947418,261.467743 209.044571,263.698456 
	C209.044571,260.867279 209.044571,259.572571 209.673309,258.072205 
	C210.112808,258.063293 210.552307,258.054382 211.071457,258.726074 
	C211.895264,259.579895 212.719055,260.433685 213.542862,261.287506 
	C214.357193,260.186920 215.171524,259.086304 216.698044,257.985809 
	C217.751465,258.339142 218.804871,258.692444 220.102386,259.127655 
	C219.966309,257.688324 219.862061,256.585815 220.492752,255.100052 
	C221.543488,254.787567 222.594238,254.475082 223.374680,254.849716 
	C224.485336,255.581512 226.009232,257.197632 226.640152,256.902802 
	C231.017548,254.857315 235.151627,252.299423 239.477142,250.132263 
	C243.663605,248.034775 248.348450,246.741608 252.168045,244.144562 
	C258.789948,239.642136 265.090515,234.614151 271.189484,229.412262 
	C276.084412,225.237305 279.540558,219.868210 282.752838,214.218155 
	C284.777100,210.657684 289.551331,208.770615 289.317749,203.603058 
	C289.294739,203.094238 290.912323,202.633041 291.550232,201.946854 
	C292.832672,200.567429 294.092621,199.129700 295.100830,197.549530 
	C295.558716,196.831863 295.057495,195.195267 295.566803,194.866211 
	C299.450195,192.357300 300.619965,188.960480 299.779724,186.535400 
	C302.083038,182.100128 303.666046,179.051819 305.773987,174.992767 
	C303.107880,175.566483 301.864105,175.834122 300.800415,175.314407 
	C301.791016,170.240189 302.781616,165.165970 304.220520,160.076279 
	C304.220520,160.076279 304.665802,160.021790 305.319275,160.065552 
	C305.537506,160.060287 305.755768,160.055038 306.290161,160.483688 
	C306.839294,159.992218 307.388458,159.500748 308.029205,158.295868 
	C308.900726,153.721252 310.288849,149.172104 310.515900,144.565704 
	C310.814972,138.497986 310.174377,132.386108 309.990082,126.291649 
	C309.858215,121.931442 310.343842,117.475609 309.600708,113.229256 
	C308.544891,107.196243 306.738495,101.279015 304.974823,95.395630 
	C304.489105,93.775368 303.014465,92.451553 302.000061,91.000122 
	C302.000061,91.000122 302.009064,91.007187 302.032990,90.331139 
	C302.181030,89.549683 302.665466,88.639778 302.423889,88.007088 
	C300.479279,82.913971 296.375671,78.847397 295.356934,73.280258 
	C295.324738,73.104401 294.464050,73.080147 294.000000,72.999763 
	C294.000000,72.999763 294.013885,73.010712 294.040466,72.226303 
	C293.854156,71.111702 294.015686,69.747559 293.424469,68.923393 
	C289.852264,63.943649 286.217102,58.999226 282.368927,54.231941 
	C280.759460,52.238064 280.070648,48.447865 275.820007,49.450901 
	C276.419708,44.873569 269.862946,39.780468 265.001221,40.999172 
	C265.001221,40.999172 264.982788,41.036762 264.995819,40.286770 
	C263.395233,37.818920 261.794647,35.351074 259.855682,32.264385 
	C255.153885,29.339825 250.469025,26.387516 245.743530,23.501795 
	C243.174683,21.933071 240.656494,20.193897 237.904221,19.031883 
	C232.678635,16.825634 227.301193,14.979074 222.000137,12.999615 
	C222.000137,12.999615 222.017380,13.011987 221.662643,12.381778 
	C217.117386,11.269181 212.572144,10.156586 207.233871,8.925304 
	C202.354279,8.573334 197.309006,8.886824 192.631744,7.722250 
	C184.459213,5.687404 176.533279,4.178052 168.444611,7.808234 
	C167.482742,8.239923 166.120895,7.671929 164.996140,7.866354 
	C155.969040,9.426777 146.634506,10.094090 138.027847,12.946848 
	C129.788773,15.677772 122.289642,20.664217 114.537819,24.795410 
	C113.957550,25.104656 113.959457,26.506300 113.551453,27.630445 
	C113.551453,27.630445 113.310341,27.750069 112.851219,27.216869 
	C112.231544,27.828289 111.611862,28.439711 110.840942,29.503119 
	C110.654686,29.789673 110.391823,29.952705 109.327164,29.986979 
	C108.553619,30.665808 107.780075,31.344635 106.998215,31.998323 
	C106.998215,31.998323 107.023079,32.007374 106.296227,31.993095 
M304.806671,169.181412 
	C305.771942,168.407944 307.040955,167.802124 307.593506,166.800903 
	C307.949524,166.155746 307.253815,164.930176 307.029480,163.964737 
	C306.729065,164.035400 306.428650,164.106079 306.128204,164.176758 
	C305.599701,165.649155 305.071198,167.121536 304.806671,169.181412 
M150.948349,260.486023 
	C150.796432,260.232269 150.644531,259.978485 150.492630,259.724731 
	C150.351013,259.986877 150.039993,260.316711 150.110794,260.494019 
	C150.198624,260.713959 150.602631,260.807678 150.948349,260.486023 
M146.938568,259.486633 
	C146.789307,259.234711 146.640060,258.982819 146.490799,258.730896 
	C146.350418,258.991425 146.045731,259.311340 146.112823,259.496857 
	C146.190094,259.710602 146.595749,259.805603 146.938568,259.486633 
M160.838730,262.993500 
	C160.738785,262.571625 160.638840,262.149750 160.538879,261.727875 
	C160.412674,261.821045 160.169144,261.930786 160.179565,262.004639 
	C160.240311,262.434326 160.360718,262.855591 160.838730,262.993500 
M202.493851,263.511597 
	C202.803741,263.107788 203.113617,262.703979 203.423508,262.300201 
	C202.998718,262.559448 202.573929,262.818695 202.493851,263.511597 
M303.742035,172.461823 
	C304.147064,172.593796 304.547241,172.747803 304.961243,172.839249 
	C305.044403,172.857620 305.180054,172.638306 305.291504,172.528580 
	C304.884857,172.395325 304.478210,172.262070 303.742035,172.461823 
M266.517609,38.391346 
	C266.517609,38.391346 266.604309,38.527077 266.517609,38.391346 
z"/>
<path fill="#EC1C24" opacity="1.000000" stroke="none" 
	d="
M83.159897,54.045715 
	C84.680481,52.601437 86.201057,51.157158 88.188614,49.279892 
	C90.497307,46.906685 92.339027,44.966469 94.424904,42.918674 
	C94.916367,42.374596 95.163673,41.938095 95.426285,41.488125 
	C95.441582,41.474655 95.483093,41.478706 95.483093,41.478706 
	C96.902039,40.206974 98.320976,38.935238 100.204132,37.339149 
	C101.463196,36.340569 102.258049,35.666348 103.052902,34.992126 
	C103.386070,34.953785 103.651474,34.799149 104.231277,34.202316 
	C105.416656,33.253403 106.219872,32.630390 107.023079,32.007378 
	C107.023079,32.007374 106.998215,31.998323 107.305710,31.906559 
	C108.426254,31.207268 109.239304,30.599741 110.052353,29.992214 
	C110.391823,29.952705 110.654686,29.789673 111.214066,29.245064 
	C112.161568,28.574694 112.735954,28.162382 113.310341,27.750069 
	C113.310341,27.750069 113.551453,27.630445 113.921059,27.402073 
	C116.047966,26.360134 117.791443,25.514994 119.565018,24.738598 
	C126.349937,21.768463 133.144547,18.820435 140.155792,16.156130 
	C144.940735,15.454908 149.530914,14.561730 154.054977,13.409075 
	C155.457565,13.051713 156.680603,11.989677 158.335815,11.026218 
	C167.793884,10.260013 176.902008,9.717851 186.087280,9.519320 
	C187.787476,9.883220 189.410492,9.903489 191.449066,9.938675 
	C193.245941,10.019026 194.627289,10.084461 196.074799,10.483329 
	C197.438461,10.852401 198.735916,10.888041 200.407089,10.939092 
	C201.523407,11.019633 202.266022,11.084764 203.066650,11.475375 
	C204.128082,11.791759 205.131485,11.782660 206.453339,11.804548 
	C207.184280,11.943274 207.596771,12.051013 208.052338,12.452799 
	C208.768341,12.751958 209.441284,12.757067 210.436172,12.795084 
	C211.175140,12.937893 211.592163,13.047794 212.052094,13.451706 
	C212.767639,13.752089 213.440247,13.758460 214.502441,13.809238 
	C231.253128,17.926050 245.617783,25.981403 259.130249,36.282631 
	C261.158905,38.075958 263.070862,39.556358 264.982788,41.036758 
	C264.982788,41.036762 265.001221,40.999172 265.117126,41.321899 
	C268.502563,44.756565 271.772156,47.868500 275.223999,51.258129 
	C279.363983,56.811646 283.636597,61.883457 287.214600,67.405357 
	C294.873138,79.224739 300.859985,91.820206 302.944214,106.066711 
	C302.783112,109.703316 300.264038,108.989861 298.268860,108.990944 
	C273.540161,109.004318 248.811310,108.965775 224.083084,109.074181 
	C222.391373,109.081596 220.704300,110.154991 218.771179,110.838745 
	C218.351013,110.964302 218.174759,110.983749 217.812347,110.771721 
	C216.839355,109.668701 216.052536,108.797142 215.173523,107.651672 
	C214.705414,106.968903 214.329498,106.560028 213.834091,105.909378 
	C213.426254,105.460976 213.137924,105.254341 212.726257,104.775162 
	C211.715317,103.714661 210.827728,102.926712 209.945587,102.093575 
	C209.951019,102.048386 209.860596,102.058830 209.730530,101.803162 
	C209.088715,101.309357 208.576965,101.071220 208.062820,100.879517 
	C208.060425,100.925964 208.141754,100.880821 207.975403,100.591209 
	C205.911087,99.145370 204.013092,97.989143 202.085602,96.868904 
	C202.056122,96.904892 202.148697,96.914284 202.046158,96.681030 
	C201.636551,96.338234 201.329468,96.228683 200.841522,96.031433 
	C200.660660,95.943741 200.260788,95.902237 200.048645,95.629639 
	C198.555527,94.869591 197.274536,94.382133 195.696899,93.670578 
	C191.189987,92.631508 187.002655,91.276299 182.765472,91.096504 
	C165.776138,90.375595 152.790314,97.868637 142.496948,111.364883 
	C114.366119,111.268906 86.700439,111.191032 59.027107,110.694855 
	C59.614567,107.600838 60.365757,104.947525 60.754005,102.242119 
	C61.049465,100.183289 60.883945,98.058289 60.991234,95.575562 
	C64.719841,86.799622 68.380730,78.410843 72.041618,70.022064 
	C72.041618,70.022064 71.999992,69.999146 72.336288,69.871872 
	C73.345863,68.109383 74.019142,66.474152 74.692413,64.838921 
	C74.692413,64.838921 74.676468,64.690018 75.061249,64.729889 
	C76.991798,62.514812 78.537560,60.259876 80.083321,58.004936 
	C80.421478,57.964134 80.676094,57.796471 81.235397,57.163944 
	C82.135719,55.899197 82.647804,54.972458 83.159897,54.045715 
z"/>
<path fill="#FEFEFE" opacity="1.000000" stroke="none" 
	d="
M58.512856,165.966827 
	C58.260376,164.700546 58.007893,163.434265 58.102886,161.644501 
	C85.580116,161.131958 112.710228,161.087891 139.838959,161.259689 
	C141.977753,161.273239 144.424805,162.369965 146.170624,163.697205 
	C149.242172,166.032333 151.633331,169.278290 154.748505,171.537277 
	C165.393860,179.256821 177.303513,181.749695 190.177429,178.993835 
	C199.615143,176.973526 207.866058,172.388412 213.796265,164.874420 
	C216.243484,161.773605 218.333603,160.302460 222.047073,160.333252 
	C232.375336,160.418945 242.704910,160.396591 253.033707,160.355057 
	C269.681702,160.288116 286.329468,160.171616 303.174561,160.157013 
	C303.371735,160.237976 303.772217,160.091751 303.772217,160.091751 
	C302.781616,165.165970 301.791016,170.240189 300.466553,175.942535 
	C293.035797,196.692352 281.603027,213.938873 265.932007,228.420029 
	C253.558212,239.854294 239.154327,247.904327 223.644974,254.162598 
	C222.594238,254.475082 221.543488,254.787567 219.776306,255.293274 
	C218.015427,255.906006 216.970993,256.325531 215.593124,256.771423 
	C214.412796,257.034729 213.565903,257.271667 212.405701,257.493408 
	C211.725510,257.667297 211.358658,257.856354 210.991806,258.045471 
	C210.552307,258.054382 210.112808,258.063293 209.077698,258.114258 
	C207.987244,258.442017 207.492401,258.727783 206.997574,259.013550 
	C202.280441,259.652954 197.563309,260.292328 192.031555,260.976776 
	C190.134903,261.110107 189.052841,261.198364 187.970795,261.286621 
	C186.596115,261.260773 185.221451,261.234924 183.044235,261.182434 
	C181.148560,261.230621 180.055435,261.305450 178.962296,261.380310 
	C177.912308,261.323883 176.862335,261.267456 175.019394,261.165314 
	C172.808716,261.127716 171.390991,261.135803 169.740112,261.047058 
	C169.344681,260.994873 169.182404,261.039490 168.690857,260.969238 
	C167.909561,260.889557 167.457520,260.924683 167.005493,260.959808 
	C163.278824,260.298248 159.552139,259.636688 155.186310,258.818420 
	C154.017258,258.533630 153.487335,258.405548 152.957428,258.277466 
	C149.598694,257.373596 146.239975,256.469727 142.210983,255.302383 
	C116.301758,246.474380 95.698929,231.549622 79.617195,210.267700 
	C70.819389,198.625031 64.952553,185.545120 59.973057,171.744110 
	C59.994572,171.500977 59.787518,171.058914 59.822128,170.742981 
	C59.408779,168.940292 58.960819,167.453568 58.512856,165.966827 
z"/>
<path fill="#231F20" opacity="1.000000" stroke="none" 
	d="
M302.977356,160.076065 
	C286.329468,160.171616 269.681702,160.288116 253.033707,160.355057 
	C242.704910,160.396591 232.375336,160.418945 222.047073,160.333252 
	C218.333603,160.302460 216.243484,161.773605 213.796265,164.874420 
	C207.866058,172.388412 199.615143,176.973526 190.177429,178.993835 
	C177.303513,181.749695 165.393860,179.256821 154.748505,171.537277 
	C151.633331,169.278290 149.242172,166.032333 146.170624,163.697205 
	C144.424805,162.369965 141.977753,161.273239 139.838959,161.259689 
	C112.710228,161.087891 85.580116,161.131958 58.022865,161.166550 
	C57.327473,161.192062 57.059582,161.172043 56.357719,160.762436 
	C55.318592,159.915451 54.713432,159.458054 54.108269,159.000656 
	C54.066753,155.781708 55.129086,151.966537 53.773720,149.457260 
	C49.931526,142.343994 52.624817,135.051086 52.192730,127.915222 
	C51.871788,122.614990 53.279388,117.210075 54.360535,111.431458 
	C55.561752,111.008301 56.319500,111.005478 57.178841,111.086639 
	C57.280437,111.170624 57.260532,111.433571 57.402485,111.832169 
	C58.470940,112.485817 59.397095,112.962212 60.323997,112.963676 
	C86.645081,113.005028 112.966324,113.020294 139.287170,112.931282 
	C140.513870,112.927132 141.737198,111.921959 142.962097,111.382988 
	C152.790314,97.868637 165.776138,90.375595 182.765472,91.096504 
	C187.002655,91.276299 191.189987,92.631508 195.764084,94.052231 
	C197.505554,95.072739 198.883179,95.487488 200.260788,95.902237 
	C200.260788,95.902237 200.660660,95.943741 200.972931,96.233154 
	C201.522583,96.764290 201.810410,96.894859 202.148697,96.914284 
	C202.148697,96.914284 202.056122,96.904892 202.092560,97.230743 
	C204.133240,98.664665 206.137497,99.772743 208.141754,100.880821 
	C208.141754,100.880821 208.060425,100.925964 208.177307,101.151154 
	C208.816330,101.603844 209.338470,101.831337 209.860596,102.058830 
	C209.860596,102.058830 209.951019,102.048386 209.971786,102.445572 
	C210.944901,103.577744 211.897247,104.312721 212.849594,105.047707 
	C213.137924,105.254341 213.426254,105.460976 213.884247,106.206841 
	C214.457855,107.139244 214.861786,107.532417 215.265717,107.925583 
	C216.052536,108.797142 216.839355,109.668701 218.106842,111.068405 
	C219.230682,111.728752 219.873764,111.976059 220.517029,111.976578 
	C247.120407,111.998230 273.723846,112.011093 300.327118,111.957321 
	C301.551697,111.954849 302.775024,111.329094 304.080994,110.616425 
	C303.850311,108.786354 303.537598,107.333504 303.224854,105.880653 
	C300.859985,91.820206 294.873138,79.224739 287.214600,67.405357 
	C283.636597,61.883457 279.363983,56.811646 275.437500,51.140251 
	C275.739868,50.540222 275.918732,50.273804 276.005341,49.945419 
	C280.070648,48.447865 280.759460,52.238064 282.368927,54.231941 
	C286.217102,58.999226 289.852264,63.943649 293.424469,68.923393 
	C294.015686,69.747559 293.854156,71.111702 293.881561,72.661667 
	C293.811646,73.059761 293.900635,73.022491 293.989624,72.985214 
	C294.464050,73.080147 295.324738,73.104401 295.356934,73.280258 
	C296.375671,78.847397 300.479279,82.913971 302.423889,88.007088 
	C302.665466,88.639778 302.181030,89.549683 301.872375,90.711983 
	C301.805725,91.059120 301.899658,91.025406 301.993591,90.991699 
	C303.014465,92.451553 304.489105,93.775368 304.974823,95.395630 
	C306.738495,101.279015 308.544891,107.196243 309.600708,113.229256 
	C310.343842,117.475609 309.858215,121.931442 309.990082,126.291649 
	C310.174377,132.386108 310.814972,138.497986 310.515900,144.565704 
	C310.288849,149.172104 308.900726,153.721252 307.688568,158.673599 
	C306.889954,159.384140 306.432007,159.716949 305.974030,160.049774 
	C305.755768,160.055038 305.537506,160.060287 304.939819,159.796387 
	C304.032684,159.710159 303.505005,159.893112 302.977356,160.076065 
M206.300125,112.214157 
	C189.588821,93.340431 156.444351,98.218643 147.667664,124.848717 
	C143.295258,138.115387 147.311447,152.757721 157.490280,161.014755 
	C165.230438,167.293549 174.441147,171.832581 185.807877,169.563187 
	C191.909332,168.345047 197.676422,166.478149 201.990784,162.817612 
	C218.158463,149.100159 219.752670,129.101151 206.300125,112.214157 
M303.569672,97.506981 
	C303.569672,97.506981 303.448395,97.587875 303.569672,97.506981 
M302.382782,94.471542 
	C302.382782,94.471542 302.500854,94.385414 302.382782,94.471542 
z"/>
<path fill="#211F20" opacity="1.000000" stroke="none" 
	d="
M59.951542,171.987228 
	C64.952553,185.545120 70.819389,198.625031 79.617195,210.267700 
	C95.698929,231.549622 116.301758,246.474380 141.822586,255.230042 
	C141.204605,256.558014 140.304749,257.694824 139.185623,259.108643 
	C132.895844,255.491486 127.122017,250.448639 120.522049,248.878586 
	C114.393814,247.420746 110.853386,242.649872 105.353485,240.828201 
	C102.959145,240.035187 100.881905,237.939575 98.964394,236.116119 
	C92.924683,230.372772 86.881348,224.617462 81.160988,218.562973 
	C79.272209,216.563858 78.518684,213.537033 76.956139,211.171646 
	C75.515327,208.990570 73.618874,207.116669 72.038864,205.020233 
	C65.381477,196.186890 61.043652,186.261459 58.234268,175.609085 
	C57.495995,172.809769 56.424175,170.096252 55.750015,167.284714 
	C55.657955,166.900787 56.992168,166.174850 58.089436,165.787048 
	C58.960819,167.453568 59.408779,168.940292 59.691879,170.853027 
	C59.668522,171.515091 59.810032,171.751160 59.951542,171.987228 
z"/>
<path fill="#212021" opacity="1.000000" stroke="none" 
	d="
M223.509827,254.506165 
	C239.154327,247.904327 253.558212,239.854294 265.932007,228.420029 
	C281.603027,213.938873 293.035797,196.692352 300.376495,176.336212 
	C301.864105,175.834122 303.107880,175.566483 305.773987,174.992767 
	C303.666046,179.051819 302.083038,182.100128 299.779724,186.535400 
	C300.619965,188.960480 299.450195,192.357300 295.566803,194.866211 
	C295.057495,195.195267 295.558716,196.831863 295.100830,197.549530 
	C294.092621,199.129700 292.832672,200.567429 291.550232,201.946854 
	C290.912323,202.633041 289.294739,203.094238 289.317749,203.603058 
	C289.551331,208.770615 284.777100,210.657684 282.752838,214.218155 
	C279.540558,219.868210 276.084412,225.237305 271.189484,229.412262 
	C265.090515,234.614151 258.789948,239.642136 252.168045,244.144562 
	C248.348450,246.741608 243.663605,248.034775 239.477142,250.132263 
	C235.151627,252.299423 231.017548,254.857315 226.640152,256.902802 
	C226.009232,257.197632 224.485336,255.581512 223.509827,254.506165 
M265.615814,231.519272 
	C265.615814,231.519272 265.486542,231.598785 265.615814,231.519272 
z"/>
<path fill="#131717" opacity="1.000000" stroke="none" 
	d="
M203.008636,11.149893 
	C202.266022,11.084764 201.523407,11.019633 200.181335,10.659190 
	C198.390808,10.292551 197.199707,10.221224 196.008621,10.149897 
	C194.627289,10.084461 193.245941,10.019026 191.206818,9.650480 
	C189.036057,9.290144 187.523087,9.232917 186.010132,9.175690 
	C176.902008,9.717851 167.793884,10.260013 157.934219,10.975665 
	C151.433624,12.720823 145.684586,14.292490 139.935532,15.864156 
	C133.144547,18.820435 126.349937,21.768463 119.565018,24.738598 
	C117.791443,25.514994 116.047966,26.360134 113.990692,27.286911 
	C113.959457,26.506300 113.957550,25.104656 114.537819,24.795410 
	C122.289642,20.664217 129.788773,15.677772 138.027847,12.946848 
	C146.634506,10.094090 155.969040,9.426777 164.996140,7.866354 
	C166.120895,7.671929 167.482742,8.239923 168.444611,7.808234 
	C176.533279,4.178052 184.459213,5.687404 192.631744,7.722250 
	C197.309006,8.886824 202.354279,8.573334 207.572174,9.309419 
	C207.235260,10.148574 206.560043,10.603614 205.525330,11.081950 
	C204.446777,11.120128 203.727707,11.135011 203.008636,11.149893 
z"/>
<path fill="#282122" opacity="1.000000" stroke="none" 
	d="
M205.884811,11.058656 
	C206.560043,10.603614 207.235260,10.148574 207.968689,9.368761 
	C212.572144,10.156586 217.117386,11.269181 221.701385,12.761946 
	C221.822372,13.089119 221.904587,13.036123 221.986816,12.983126 
	C227.301193,14.979074 232.678635,16.825634 237.904221,19.031883 
	C240.656494,20.193897 243.174683,21.933071 245.743530,23.501795 
	C250.469025,26.387516 255.153885,29.339825 259.933594,32.896324 
	C259.678864,34.342072 259.346191,35.155884 259.013550,35.969696 
	C245.617783,25.981403 231.253128,17.926050 214.294067,13.609977 
	C213.133820,13.296772 212.571487,13.227235 212.009171,13.157698 
	C211.592163,13.047794 211.175140,12.937893 210.227203,12.596561 
	C209.133926,12.296339 208.571594,12.227545 208.009247,12.158751 
	C207.596771,12.051013 207.184280,11.943274 206.392151,11.625446 
	C206.012512,11.415356 205.884811,11.058657 205.884811,11.058656 
z"/>
<path fill="#131717" opacity="1.000000" stroke="none" 
	d="
M57.077248,111.002663 
	C56.319500,111.005478 55.561752,111.008301 54.426476,111.021416 
	C55.350361,105.910988 56.118866,100.576187 58.070976,95.716866 
	C61.485878,87.216270 65.610222,78.999466 69.517296,70.701416 
	C69.712128,70.287628 70.665482,70.230988 71.653625,70.015060 
	C68.380730,78.410843 64.719841,86.799622 60.664276,95.772736 
	C59.205490,101.238930 58.141373,106.120796 57.077248,111.002663 
z"/>
<path fill="#111414" opacity="1.000000" stroke="none" 
	d="
M275.912659,49.698158 
	C275.918732,50.273804 275.739868,50.540222 275.255249,50.862556 
	C271.772156,47.868500 268.502563,44.756565 265.098450,41.331406 
	C269.862946,39.780468 276.419708,44.873569 275.912659,49.698158 
z"/>
<path fill="#111414" opacity="1.000000" stroke="none" 
	d="
M259.130249,36.282627 
	C259.346191,35.155884 259.678864,34.342072 260.102783,33.205742 
	C261.794647,35.351074 263.395233,37.818920 264.989319,40.661762 
	C263.070862,39.556358 261.158905,38.075958 259.130249,36.282627 
z"/>
<path fill="#171617" opacity="1.000000" stroke="none" 
	d="
M169.973267,261.143860 
	C171.390991,261.135803 172.808716,261.127716 174.632599,261.250580 
	C170.411148,264.946411 168.409271,265.026367 167.009857,261.330933 
	C167.457520,260.924683 167.909561,260.889557 168.774536,261.120972 
	C169.449402,261.306305 169.711334,261.225067 169.973267,261.143860 
z"/>
<path fill="#131717" opacity="1.000000" stroke="none" 
	d="
M94.180748,43.026253 
	C92.339027,44.966469 90.497307,46.906685 88.348343,49.007759 
	C87.050262,45.860352 89.148308,44.093033 91.820709,42.425041 
	C92.440170,42.714157 92.714493,42.890007 93.333939,42.975052 
	C93.804749,42.996372 93.992752,43.011311 94.180748,43.026253 
z"/>
<path fill="#131717" opacity="1.000000" stroke="none" 
	d="
M79.698250,57.998909 
	C78.537560,60.259876 76.991798,62.514812 75.136078,64.732590 
	C74.585571,61.298908 75.721794,58.824081 79.698250,57.998909 
z"/>
<path fill="#171617" opacity="1.000000" stroke="none" 
	d="
M188.046814,261.618225 
	C189.052841,261.198364 190.134903,261.110107 191.623444,261.082611 
	C192.501511,261.421295 192.973099,261.699219 193.725601,262.370178 
	C194.010223,263.496674 194.013931,264.230164 194.017624,264.963654 
	C192.052704,263.959045 190.087784,262.954468 188.046814,261.618225 
z"/>
<path fill="#212021" opacity="1.000000" stroke="none" 
	d="
M304.674683,168.887665 
	C305.071198,167.121536 305.599701,165.649155 306.128204,164.176758 
	C306.428650,164.106079 306.729065,164.035400 307.029480,163.964737 
	C307.253815,164.930176 307.949524,166.155746 307.593506,166.800903 
	C307.040955,167.802124 305.771942,168.407944 304.674683,168.887665 
z"/>
<path fill="#212021" opacity="1.000000" stroke="none" 
	d="
M211.031631,258.385742 
	C211.358658,257.856354 211.725510,257.667297 212.581039,257.772644 
	C214.051559,258.048218 215.033432,258.029358 216.007874,258.005127 
	C216.000473,257.999786 215.985870,257.985718 215.985870,257.985718 
	C215.171524,259.086304 214.357193,260.186920 213.542862,261.287506 
	C212.719055,260.433685 211.895264,259.579895 211.031631,258.385742 
z"/>
<path fill="#212021" opacity="1.000000" stroke="none" 
	d="
M215.926559,256.745026 
	C216.970993,256.325531 218.015427,255.906006 219.408844,255.484894 
	C219.862061,256.585815 219.966309,257.688324 220.102386,259.127655 
	C218.804871,258.692444 217.751465,258.339142 216.341949,257.985779 
	C215.985870,257.985718 216.000473,257.999786 215.982285,257.688965 
	C215.951584,257.167145 215.939072,256.956085 215.926559,256.745026 
z"/>
<path fill="#211F20" opacity="1.000000" stroke="none" 
	d="
M152.952606,258.659912 
	C153.487335,258.405548 154.017258,258.533630 154.774689,258.837494 
	C154.869431,260.196838 154.736633,261.380371 154.603851,262.563873 
	C154.219406,262.600769 153.834961,262.637634 153.450516,262.674500 
	C153.282944,261.463806 153.115372,260.253082 152.952606,258.659912 
z"/>
<path fill="#131717" opacity="1.000000" stroke="none" 
	d="
M74.365326,64.616394 
	C74.019142,66.474152 73.345863,68.109383 72.347549,69.892792 
	C72.694412,68.158600 73.366318,66.276230 74.365326,64.616394 
z"/>
<path fill="#131717" opacity="1.000000" stroke="none" 
	d="
M82.851509,53.916901 
	C82.647804,54.972458 82.135719,55.899197 81.307434,56.939583 
	C80.628792,55.546719 78.139519,53.029346 82.851509,53.916901 
z"/>
<path fill="#171617" opacity="1.000000" stroke="none" 
	d="
M179.030914,261.696228 
	C180.055435,261.305450 181.148560,261.230621 182.640228,261.267365 
	C181.725677,261.590027 180.412598,261.801117 179.030914,261.696228 
z"/>
<path fill="#131717" opacity="1.000000" stroke="none" 
	d="
M102.739685,34.949997 
	C102.258049,35.666348 101.463196,36.340569 100.336235,37.048401 
	C100.004120,36.133938 100.004120,35.185867 100.004120,33.839127 
	C100.964508,34.262852 101.695496,34.585361 102.739685,34.949997 
z"/>
<path fill="#212021" opacity="1.000000" stroke="none" 
	d="
M207.034607,259.350342 
	C207.492401,258.727783 207.987244,258.442017 208.763336,258.217072 
	C209.044571,259.572571 209.044571,260.867279 209.044571,263.698456 
	C207.947418,261.467743 207.509521,260.577423 207.034607,259.350342 
z"/>
<path fill="#111314" opacity="1.000000" stroke="none" 
	d="
M92.997253,40.997852 
	C93.450508,40.258884 93.903763,39.519917 94.357025,38.780952 
	C94.659912,39.455132 94.962799,40.129311 95.374390,41.141098 
	C95.483093,41.478706 95.441582,41.474655 95.039871,41.323509 
	C94.093117,41.115929 93.548088,41.059498 93.001526,41.001602 
	C93.000000,41.000134 92.997253,40.997852 92.997253,40.997852 
z"/>
<path fill="#212021" opacity="1.000000" stroke="none" 
	d="
M194.303589,264.839294 
	C194.013931,264.230164 194.010223,263.496674 194.010529,262.396698 
	C194.206192,262.925140 194.397858,263.820038 194.303589,264.839294 
z"/>
<path fill="#131717" opacity="1.000000" stroke="none" 
	d="
M113.080780,27.483469 
	C112.735954,28.162382 112.161568,28.574694 111.289680,29.019070 
	C111.611862,28.439711 112.231544,27.828289 113.080780,27.483469 
z"/>
<path fill="#212021" opacity="1.000000" stroke="none" 
	d="
M306.132080,160.266724 
	C306.432007,159.716949 306.889954,159.384140 307.642761,159.030304 
	C307.388458,159.500748 306.839294,159.992218 306.132080,160.266724 
z"/>
<path fill="#131717" opacity="1.000000" stroke="none" 
	d="
M109.689758,29.989597 
	C109.239304,30.599741 108.426254,31.207268 107.309868,31.919128 
	C107.780075,31.344635 108.553619,30.665808 109.689758,29.989597 
z"/>
<path fill="#211F20" opacity="1.000000" stroke="none" 
	d="
M54.116104,159.321365 
	C54.713432,159.458054 55.318592,159.915451 55.962151,160.685608 
	C55.375011,160.546280 54.749474,160.094177 54.116104,159.321365 
z"/>
<path fill="#131717" opacity="1.000000" stroke="none" 
	d="
M106.659653,32.000237 
	C106.219872,32.630390 105.416656,33.253403 104.309433,33.979797 
	C104.769020,33.386486 105.532623,32.689789 106.659653,32.000237 
z"/>
<path fill="#171617" opacity="1.000000" stroke="none" 
	d="
M150.909210,260.720947 
	C150.602631,260.807678 150.198624,260.713959 150.110794,260.494019 
	C150.039993,260.316711 150.351013,259.986877 150.492630,259.724731 
	C150.644531,259.978485 150.796432,260.232269 150.909210,260.720947 
z"/>
<path fill="#211F20" opacity="1.000000" stroke="none" 
	d="
M146.898682,259.719421 
	C146.595749,259.805603 146.190094,259.710602 146.112823,259.496857 
	C146.045731,259.311340 146.350418,258.991425 146.490799,258.730896 
	C146.640060,258.982819 146.789307,259.234711 146.898682,259.719421 
z"/>
<path fill="#171617" opacity="1.000000" stroke="none" 
	d="
M160.649841,263.136597 
	C160.360718,262.855591 160.240311,262.434326 160.179565,262.004639 
	C160.169144,261.930786 160.412674,261.821045 160.538879,261.727875 
	C160.638840,262.149750 160.738785,262.571625 160.649841,263.136597 
z"/>
<path fill="#212021" opacity="1.000000" stroke="none" 
	d="
M202.321503,263.294800 
	C202.573929,262.818695 202.998718,262.559448 203.423508,262.300171 
	C203.113617,262.703979 202.803741,263.107788 202.321503,263.294800 
z"/>
<path fill="#212021" opacity="1.000000" stroke="none" 
	d="
M303.906799,172.295319 
	C304.478210,172.262070 304.884857,172.395325 305.291504,172.528580 
	C305.180054,172.638306 305.044403,172.857620 304.961243,172.839249 
	C304.547241,172.747803 304.147064,172.593796 303.906799,172.295319 
z"/>
<path fill="#090506" opacity="1.000000" stroke="none" 
	d="
M303.174561,160.157013 
	C303.505005,159.893112 304.032684,159.710159 304.613068,159.774506 
	C304.665802,160.021790 304.220520,160.076279 303.996368,160.084015 
	C303.772217,160.091751 303.371735,160.237976 303.174561,160.157013 
z"/>
<path fill="#111314" opacity="1.000000" stroke="none" 
	d="
M93.051132,42.968662 
	C92.714493,42.890007 92.440170,42.714157 92.114090,42.220551 
	C92.092285,41.671429 92.276909,41.407436 92.775558,41.102936 
	C92.997253,40.997852 93.000000,41.000134 93.007370,41.329437 
	C93.026863,42.095379 93.039001,42.532021 93.051132,42.968662 
z"/>
<path fill="#111414" opacity="1.000000" stroke="none" 
	d="
M266.560974,38.459213 
	C266.604309,38.527077 266.517609,38.391346 266.560974,38.459213 
z"/>
<path fill="#FD1B24" opacity="1.000000" stroke="none" 
	d="
M302.944214,106.066711 
	C303.537598,107.333504 303.850311,108.786354 303.728760,110.579544 
	C275.201324,110.857468 247.108200,110.795059 219.015076,110.732643 
	C220.704300,110.154991 222.391373,109.081596 224.083084,109.074181 
	C248.811310,108.965775 273.540161,109.004318 298.268860,108.990944 
	C300.264038,108.989861 302.783112,109.703316 302.944214,106.066711 
z"/>
<path fill="#141919" opacity="1.000000" stroke="none" 
	d="
M142.496948,111.364883 
	C141.737198,111.921959 140.513870,112.927132 139.287170,112.931282 
	C112.966324,113.020294 86.645081,113.005028 60.323997,112.963676 
	C59.397095,112.962212 58.470940,112.485817 57.633469,111.848671 
	C58.159920,111.348763 58.597340,111.230957 59.034763,111.113152 
	C86.700439,111.191032 114.366119,111.268906 142.496948,111.364883 
z"/>
<path fill="#141919" opacity="1.000000" stroke="none" 
	d="
M218.771179,110.838745 
	C247.108200,110.795059 275.201324,110.857468 303.646698,110.956757 
	C302.775024,111.329094 301.551697,111.954849 300.327118,111.957321 
	C273.723846,112.011093 247.120407,111.998230 220.517029,111.976578 
	C219.873764,111.976059 219.230682,111.728752 218.293030,111.299873 
	C218.174759,110.983749 218.351013,110.964302 218.771179,110.838745 
z"/>
<path fill="#F51B24" opacity="1.000000" stroke="none" 
	d="
M140.155792,16.156132 
	C145.684586,14.292490 151.433624,12.720823 157.584259,11.199709 
	C156.680603,11.989677 155.457565,13.051713 154.054977,13.409075 
	C149.530914,14.561730 144.940735,15.454908 140.155792,16.156132 
z"/>
<path fill="#FA1B24" opacity="1.000000" stroke="none" 
	d="
M59.027107,110.694855 
	C58.597340,111.230957 58.159920,111.348763 57.491516,111.450073 
	C57.260532,111.433571 57.280437,111.170624 57.178844,111.086639 
	C58.141373,106.120796 59.205490,101.238930 60.596565,96.159897 
	C60.883945,98.058289 61.049465,100.183289 60.754005,102.242119 
	C60.365757,104.947525 59.614567,107.600838 59.027107,110.694855 
z"/>
<path fill="#251A1B" opacity="1.000000" stroke="none" 
	d="
M207.975403,100.591209 
	C206.137497,99.772743 204.133240,98.664665 202.122040,97.194748 
	C204.013092,97.989143 205.911087,99.145370 207.975403,100.591209 
z"/>
<path fill="#F41B24" opacity="1.000000" stroke="none" 
	d="
M186.087280,9.519320 
	C187.523087,9.232917 189.036057,9.290144 190.791260,9.635565 
	C189.410492,9.903489 187.787476,9.883220 186.087280,9.519320 
z"/>
<path fill="#F41B24" opacity="1.000000" stroke="none" 
	d="
M196.074799,10.483329 
	C197.199707,10.221224 198.390808,10.292551 199.807648,10.643779 
	C198.735916,10.888041 197.438461,10.852401 196.074799,10.483329 
z"/>
<path fill="#251A1B" opacity="1.000000" stroke="none" 
	d="
M212.726257,104.775162 
	C211.897247,104.312721 210.944901,103.577744 209.966339,102.490768 
	C210.827728,102.926712 211.715317,103.714661 212.726257,104.775162 
z"/>
<path fill="#F41B24" opacity="1.000000" stroke="none" 
	d="
M205.525330,11.081951 
	C205.884811,11.058657 206.012512,11.415356 206.073700,11.594458 
	C205.131485,11.782660 204.128082,11.791759 203.066650,11.475375 
	C203.727707,11.135011 204.446777,11.120128 205.525330,11.081951 
z"/>
<path fill="#251A1B" opacity="1.000000" stroke="none" 
	d="
M200.048645,95.629639 
	C198.883179,95.487488 197.505554,95.072739 196.060760,94.276337 
	C197.274536,94.382133 198.555527,94.869591 200.048645,95.629639 
z"/>
<path fill="#F41B24" opacity="1.000000" stroke="none" 
	d="
M208.052338,12.452799 
	C208.571594,12.227545 209.133926,12.296339 209.905243,12.563655 
	C209.441284,12.757067 208.768341,12.751958 208.052338,12.452799 
z"/>
<path fill="#F41B24" opacity="1.000000" stroke="none" 
	d="
M212.052094,13.451707 
	C212.571487,13.227235 213.133820,13.296772 213.904495,13.565571 
	C213.440247,13.758460 212.767639,13.752089 212.052094,13.451707 
z"/>
<path fill="#000000" opacity="1.000000" stroke="none" 
	d="
M93.333939,42.975052 
	C93.039001,42.532021 93.026863,42.095379 93.008896,41.330902 
	C93.548088,41.059498 94.093117,41.115929 95.024567,41.336975 
	C95.163673,41.938095 94.916367,42.374596 94.424904,42.918671 
	C93.992752,43.011311 93.804749,42.996372 93.333939,42.975052 
z"/>
<path fill="#251A1B" opacity="1.000000" stroke="none" 
	d="
M215.173523,107.651680 
	C214.861786,107.532417 214.457855,107.139244 214.003754,106.448608 
	C214.329498,106.560028 214.705414,106.968903 215.173523,107.651680 
z"/>
<path fill="#251A1B" opacity="1.000000" stroke="none" 
	d="
M209.730530,101.803162 
	C209.338470,101.831337 208.816330,101.603844 208.179718,101.104713 
	C208.576965,101.071220 209.088715,101.309357 209.730530,101.803162 
z"/>
<path fill="#251A1B" opacity="1.000000" stroke="none" 
	d="
M202.046158,96.681030 
	C201.810410,96.894859 201.522583,96.764290 201.153793,96.320854 
	C201.329468,96.228683 201.636551,96.338234 202.046158,96.681030 
z"/>
<path fill="#000000" opacity="1.000000" stroke="none" 
	d="
M215.593124,256.771423 
	C215.939072,256.956085 215.951584,257.167145 215.989685,257.694336 
	C215.033432,258.029358 214.051559,258.048218 212.894348,257.787842 
	C213.565903,257.271667 214.412796,257.034729 215.593124,256.771423 
z"/>
<path fill="#000000" opacity="1.000000" stroke="none" 
	d="
M59.973057,171.744110 
	C59.810032,171.751160 59.668522,171.515091 59.657265,171.168976 
	C59.787518,171.058914 59.994572,171.500977 59.973057,171.744110 
z"/>
<path fill="#000000" opacity="1.000000" stroke="none" 
	d="
M169.740112,261.047058 
	C169.711334,261.225067 169.449402,261.306305 169.103806,261.235779 
	C169.182404,261.039490 169.344681,260.994873 169.740112,261.047058 
z"/>
<path fill="#F9F9F9" opacity="1.000000" stroke="none" 
	d="
M206.540070,112.475365 
	C219.752670,129.101151 218.158463,149.100159 201.990784,162.817612 
	C197.676422,166.478149 191.909332,168.345047 185.807877,169.563187 
	C174.441147,171.832581 165.230438,167.293549 157.490280,161.014755 
	C147.311447,152.757721 143.295258,138.115387 147.667664,124.848717 
	C156.444351,98.218643 189.588821,93.340431 206.540070,112.475365 
M196.548035,114.871353 
	C191.644928,110.656845 185.842300,110.036804 179.604446,109.840584 
	C171.268982,109.578377 165.423981,113.402161 160.321121,119.301132 
	C155.154312,125.273987 154.277634,132.586411 155.335861,139.721893 
	C156.932358,150.487122 167.098999,159.260986 177.535767,160.261536 
	C189.069290,161.367233 199.590637,155.509216 203.960983,145.548615 
	C208.701538,134.744247 206.107452,123.234528 196.548035,114.871353 
z"/>
<path fill="#000000" opacity="1.000000" stroke="none" 
	d="
M303.509033,97.547424 
	C303.448395,97.587875 303.569672,97.506981 303.509033,97.547424 
z"/>
<path fill="#000000" opacity="1.000000" stroke="none" 
	d="
M302.441833,94.428482 
	C302.500854,94.385414 302.382782,94.471542 302.441833,94.428482 
z"/>
<path fill="#000000" opacity="1.000000" stroke="none" 
	d="
M301.996826,90.995911 
	C301.899658,91.025406 301.805725,91.059120 301.860413,91.050003 
	C302.009064,91.007187 302.000061,91.000122 301.996826,90.995911 
z"/>
<path fill="#000000" opacity="1.000000" stroke="none" 
	d="
M293.994812,72.992493 
	C293.900635,73.022491 293.811646,73.059761 293.868286,73.053879 
	C294.013885,73.010712 294.000000,72.999763 293.994812,72.992493 
z"/>
<path fill="#000000" opacity="1.000000" stroke="none" 
	d="
M265.551178,231.559021 
	C265.486542,231.598785 265.615814,231.519272 265.551178,231.559021 
z"/>
<path fill="#000000" opacity="1.000000" stroke="none" 
	d="
M221.993469,12.991371 
	C221.904587,13.036123 221.822372,13.089119 221.878754,13.077051 
	C222.017380,13.011987 222.000137,12.999615 221.993469,12.991371 
z"/>
<path fill="#1B191A" opacity="1.000000" stroke="none" 
	d="
M196.845062,115.082672 
	C206.107452,123.234528 208.701538,134.744247 203.960983,145.548615 
	C199.590637,155.509216 189.069290,161.367233 177.535767,160.261536 
	C167.098999,159.260986 156.932358,150.487122 155.335861,139.721893 
	C154.277634,132.586411 155.154312,125.273987 160.321121,119.301132 
	C165.423981,113.402161 171.268982,109.578377 179.604446,109.840584 
	C185.842300,110.036804 191.644928,110.656845 196.845062,115.082672 
M176.932266,113.008934 
	C162.982529,113.890938 151.340149,134.115768 162.831924,148.392334 
	C169.662323,156.877930 181.506989,159.753143 191.043945,154.695419 
	C200.788452,149.527634 205.417633,137.798050 201.790741,127.464813 
	C198.374420,117.731514 190.582184,113.040192 176.932266,113.008934 
z"/>
<path fill="#FDFDFD" opacity="1.000000" stroke="none" 
	d="
M177.375702,113.020813 
	C190.582184,113.040192 198.374420,117.731514 201.790741,127.464813 
	C205.417633,137.798050 200.788452,149.527634 191.043945,154.695419 
	C181.506989,159.753143 169.662323,156.877930 162.831924,148.392334 
	C151.340149,134.115768 162.982529,113.890938 177.375702,113.020813 
z"/>
</svg>